<mxfile host="Electron" modified="2024-02-06T11:44:42.181Z" agent="Mozilla/5.0 (Macintosh; Intel Mac OS X 10_15_7) AppleWebKit/537.36 (KHTML, like Gecko) draw.io/22.1.21 Chrome/120.0.6099.109 Electron/28.1.0 Safari/537.36" etag="6946u4Mh9eqANvR5liNC" version="22.1.21" type="device" pages="5">
  <diagram name="Veeam" id="EK-IaFDj5gIDf1e9t6iN">
    <mxGraphModel dx="2060" dy="1128" grid="1" gridSize="10" guides="1" tooltips="1" connect="1" arrows="1" fold="1" page="1" pageScale="1" pageWidth="827" pageHeight="1169" math="0" shadow="0">
      <root>
        <mxCell id="0" />
        <mxCell id="1" parent="0" />
        <mxCell id="cqP6IJZy74ttJfCUHKLl-10" style="edgeStyle=orthogonalEdgeStyle;rounded=0;orthogonalLoop=1;jettySize=auto;html=1;" parent="1" source="cqP6IJZy74ttJfCUHKLl-1" target="cqP6IJZy74ttJfCUHKLl-4" edge="1">
          <mxGeometry relative="1" as="geometry" />
        </mxCell>
        <mxCell id="cqP6IJZy74ttJfCUHKLl-1" value="&lt;div style=&quot;text-align: center;&quot;&gt;&lt;b style=&quot;background-color: initial;&quot;&gt;Need&lt;/b&gt;&lt;/div&gt;disaster recovery capability for VMware workloads across IBM Cloud regions" style="rounded=1;whiteSpace=wrap;html=1;align=left;fillColor=#dae8fc;strokeColor=#6c8ebf;" parent="1" vertex="1">
          <mxGeometry x="267.5" y="60" width="135" height="90" as="geometry" />
        </mxCell>
        <mxCell id="cqP6IJZy74ttJfCUHKLl-9" value="Yes" style="edgeStyle=orthogonalEdgeStyle;rounded=0;orthogonalLoop=1;jettySize=auto;html=1;" parent="1" source="cqP6IJZy74ttJfCUHKLl-4" target="cqP6IJZy74ttJfCUHKLl-7" edge="1">
          <mxGeometry relative="1" as="geometry">
            <Array as="points">
              <mxPoint x="425" y="250" />
            </Array>
          </mxGeometry>
        </mxCell>
        <mxCell id="cqP6IJZy74ttJfCUHKLl-4" value="&lt;span style=&quot;font-family: Helvetica; font-size: 12px; font-style: normal; font-variant-ligatures: normal; font-variant-caps: normal; font-weight: 400; letter-spacing: normal; orphans: 2; text-align: center; text-indent: 0px; text-transform: none; widows: 2; word-spacing: 0px; -webkit-text-stroke-width: 0px; text-decoration-thickness: initial; text-decoration-style: initial; text-decoration-color: initial; float: none; display: inline !important;&quot;&gt;vSphere &lt;br&gt;encryption &lt;br&gt;compatibility &lt;br&gt;needed&lt;/span&gt;" style="rhombus;whiteSpace=wrap;html=1;fillColor=#dae8fc;strokeColor=#6c8ebf;fontColor=default;labelBackgroundColor=none;" parent="1" vertex="1">
          <mxGeometry x="270" y="190" width="130" height="120" as="geometry" />
        </mxCell>
        <mxCell id="cqP6IJZy74ttJfCUHKLl-6" value="Zerto" style="rounded=0;whiteSpace=wrap;html=1;fillColor=#dae8fc;strokeColor=#6c8ebf;" parent="1" vertex="1">
          <mxGeometry x="220" y="330" width="60" height="20" as="geometry" />
        </mxCell>
        <mxCell id="cqP6IJZy74ttJfCUHKLl-7" value="Veeam" style="rounded=0;whiteSpace=wrap;html=1;fillColor=#ffe6cc;strokeColor=#d79b00;" parent="1" vertex="1">
          <mxGeometry x="390" y="330" width="70" height="20" as="geometry" />
        </mxCell>
        <mxCell id="cqP6IJZy74ttJfCUHKLl-8" value="No" style="edgeStyle=orthogonalEdgeStyle;rounded=0;orthogonalLoop=1;jettySize=auto;html=1;" parent="1" source="cqP6IJZy74ttJfCUHKLl-4" target="cqP6IJZy74ttJfCUHKLl-6" edge="1">
          <mxGeometry relative="1" as="geometry">
            <Array as="points">
              <mxPoint x="250" y="250" />
            </Array>
          </mxGeometry>
        </mxCell>
        <mxCell id="jLAxUOXLqxo73lKlouV3-1" style="edgeStyle=orthogonalEdgeStyle;rounded=0;orthogonalLoop=1;jettySize=auto;html=1;" parent="1" source="cqP6IJZy74ttJfCUHKLl-7" target="jLAxUOXLqxo73lKlouV3-4" edge="1">
          <mxGeometry relative="1" as="geometry">
            <mxPoint x="447.5" y="311" as="targetPoint" />
            <Array as="points">
              <mxPoint x="427" y="370" />
              <mxPoint x="427" y="370" />
            </Array>
            <mxPoint x="447.5" y="450" as="sourcePoint" />
          </mxGeometry>
        </mxCell>
        <mxCell id="jLAxUOXLqxo73lKlouV3-3" value="Yes" style="edgeStyle=orthogonalEdgeStyle;rounded=0;orthogonalLoop=1;jettySize=auto;html=1;" parent="1" source="jLAxUOXLqxo73lKlouV3-4" target="jLAxUOXLqxo73lKlouV3-7" edge="1">
          <mxGeometry relative="1" as="geometry">
            <Array as="points">
              <mxPoint x="318" y="450" />
            </Array>
          </mxGeometry>
        </mxCell>
        <mxCell id="jLAxUOXLqxo73lKlouV3-4" value="RPO in seconds" style="rhombus;whiteSpace=wrap;html=1;fillColor=#dae8fc;strokeColor=#6c8ebf;fontColor=default;labelBackgroundColor=none;" parent="1" vertex="1">
          <mxGeometry x="362.5" y="390" width="130" height="120" as="geometry" />
        </mxCell>
        <mxCell id="jLAxUOXLqxo73lKlouV3-5" value="Veeam backup and replication" style="rounded=0;whiteSpace=wrap;html=1;fillColor=#dae8fc;strokeColor=#6c8ebf;" parent="1" vertex="1">
          <mxGeometry x="492.5" y="523" width="127.5" height="40" as="geometry" />
        </mxCell>
        <mxCell id="jLAxUOXLqxo73lKlouV3-6" value="No" style="edgeStyle=orthogonalEdgeStyle;rounded=0;orthogonalLoop=1;jettySize=auto;html=1;" parent="1" source="jLAxUOXLqxo73lKlouV3-4" target="jLAxUOXLqxo73lKlouV3-5" edge="1">
          <mxGeometry relative="1" as="geometry">
            <Array as="points">
              <mxPoint x="538" y="450" />
            </Array>
          </mxGeometry>
        </mxCell>
        <mxCell id="jLAxUOXLqxo73lKlouV3-7" value="Veeam Continuous Data Protection (CDP)" style="rounded=0;whiteSpace=wrap;html=1;fillColor=#dae8fc;strokeColor=#6c8ebf;" parent="1" vertex="1">
          <mxGeometry x="230" y="523" width="132.5" height="40" as="geometry" />
        </mxCell>
      </root>
    </mxGraphModel>
  </diagram>
  <diagram name="Generic" id="vQ33hlRabjokEYQNewWU">
    <mxGraphModel dx="954" dy="674" grid="1" gridSize="10" guides="1" tooltips="1" connect="1" arrows="1" fold="1" page="1" pageScale="1" pageWidth="827" pageHeight="1169" math="0" shadow="0">
      <root>
        <mxCell id="MVE86zR6ecj5sjNmbKih-0" />
        <mxCell id="MVE86zR6ecj5sjNmbKih-1" parent="MVE86zR6ecj5sjNmbKih-0" />
        <mxCell id="MVE86zR6ecj5sjNmbKih-2" style="edgeStyle=orthogonalEdgeStyle;rounded=0;orthogonalLoop=1;jettySize=auto;html=1;" edge="1" parent="MVE86zR6ecj5sjNmbKih-1" source="MVE86zR6ecj5sjNmbKih-3" target="MVE86zR6ecj5sjNmbKih-5">
          <mxGeometry relative="1" as="geometry" />
        </mxCell>
        <mxCell id="MVE86zR6ecj5sjNmbKih-3" value="&lt;div style=&quot;text-align: center;&quot;&gt;&lt;b style=&quot;background-color: initial;&quot;&gt;Need&lt;/b&gt;&lt;/div&gt;disaster recovery capability for VMware workloads across IBM Cloud regions" style="rounded=1;whiteSpace=wrap;html=1;align=left;fillColor=#dae8fc;strokeColor=#6c8ebf;" vertex="1" parent="MVE86zR6ecj5sjNmbKih-1">
          <mxGeometry x="267.5" y="60" width="135" height="90" as="geometry" />
        </mxCell>
        <mxCell id="MVE86zR6ecj5sjNmbKih-4" value="Yes" style="edgeStyle=orthogonalEdgeStyle;rounded=0;orthogonalLoop=1;jettySize=auto;html=1;" edge="1" parent="MVE86zR6ecj5sjNmbKih-1" source="MVE86zR6ecj5sjNmbKih-5" target="MVE86zR6ecj5sjNmbKih-7">
          <mxGeometry relative="1" as="geometry">
            <Array as="points">
              <mxPoint x="425" y="250" />
            </Array>
          </mxGeometry>
        </mxCell>
        <mxCell id="MVE86zR6ecj5sjNmbKih-5" value="&lt;span style=&quot;font-family: Helvetica; font-size: 12px; font-style: normal; font-variant-ligatures: normal; font-variant-caps: normal; font-weight: 400; letter-spacing: normal; orphans: 2; text-align: center; text-indent: 0px; text-transform: none; widows: 2; word-spacing: 0px; -webkit-text-stroke-width: 0px; text-decoration-thickness: initial; text-decoration-style: initial; text-decoration-color: initial; float: none; display: inline !important;&quot;&gt;vSphere &lt;br&gt;encryption &lt;br&gt;compatibility &lt;br&gt;needed&lt;/span&gt;" style="rhombus;whiteSpace=wrap;html=1;fillColor=#dae8fc;strokeColor=#6c8ebf;fontColor=default;labelBackgroundColor=none;" vertex="1" parent="MVE86zR6ecj5sjNmbKih-1">
          <mxGeometry x="270" y="190" width="130" height="120" as="geometry" />
        </mxCell>
        <mxCell id="MVE86zR6ecj5sjNmbKih-6" value="Zerto" style="rounded=0;whiteSpace=wrap;html=1;fillColor=#dae8fc;strokeColor=#6c8ebf;" vertex="1" parent="MVE86zR6ecj5sjNmbKih-1">
          <mxGeometry x="220" y="330" width="60" height="20" as="geometry" />
        </mxCell>
        <mxCell id="MVE86zR6ecj5sjNmbKih-7" value="Veeam" style="rounded=0;whiteSpace=wrap;html=1;fillColor=#dae8fc;strokeColor=#6c8ebf;" vertex="1" parent="MVE86zR6ecj5sjNmbKih-1">
          <mxGeometry x="390" y="330" width="70" height="20" as="geometry" />
        </mxCell>
        <mxCell id="MVE86zR6ecj5sjNmbKih-8" value="No" style="edgeStyle=orthogonalEdgeStyle;rounded=0;orthogonalLoop=1;jettySize=auto;html=1;" edge="1" parent="MVE86zR6ecj5sjNmbKih-1" source="MVE86zR6ecj5sjNmbKih-5" target="MVE86zR6ecj5sjNmbKih-6">
          <mxGeometry relative="1" as="geometry">
            <Array as="points">
              <mxPoint x="250" y="250" />
            </Array>
          </mxGeometry>
        </mxCell>
        <mxCell id="MVE86zR6ecj5sjNmbKih-9" style="edgeStyle=orthogonalEdgeStyle;rounded=0;orthogonalLoop=1;jettySize=auto;html=1;" edge="1" parent="MVE86zR6ecj5sjNmbKih-1" source="MVE86zR6ecj5sjNmbKih-7" target="MVE86zR6ecj5sjNmbKih-11">
          <mxGeometry relative="1" as="geometry">
            <mxPoint x="447.5" y="311" as="targetPoint" />
            <Array as="points">
              <mxPoint x="427" y="370" />
              <mxPoint x="427" y="370" />
            </Array>
            <mxPoint x="447.5" y="450" as="sourcePoint" />
          </mxGeometry>
        </mxCell>
        <mxCell id="MVE86zR6ecj5sjNmbKih-10" value="Yes" style="edgeStyle=orthogonalEdgeStyle;rounded=0;orthogonalLoop=1;jettySize=auto;html=1;" edge="1" parent="MVE86zR6ecj5sjNmbKih-1" source="MVE86zR6ecj5sjNmbKih-11" target="MVE86zR6ecj5sjNmbKih-14">
          <mxGeometry relative="1" as="geometry">
            <Array as="points">
              <mxPoint x="318" y="450" />
            </Array>
          </mxGeometry>
        </mxCell>
        <mxCell id="MVE86zR6ecj5sjNmbKih-11" value="RPO in seconds" style="rhombus;whiteSpace=wrap;html=1;fillColor=#dae8fc;strokeColor=#6c8ebf;fontColor=default;labelBackgroundColor=none;" vertex="1" parent="MVE86zR6ecj5sjNmbKih-1">
          <mxGeometry x="362.5" y="390" width="130" height="120" as="geometry" />
        </mxCell>
        <mxCell id="MVE86zR6ecj5sjNmbKih-12" value="Veeam backup and replication" style="rounded=0;whiteSpace=wrap;html=1;fillColor=#dae8fc;strokeColor=#6c8ebf;" vertex="1" parent="MVE86zR6ecj5sjNmbKih-1">
          <mxGeometry x="492.5" y="523" width="127.5" height="40" as="geometry" />
        </mxCell>
        <mxCell id="MVE86zR6ecj5sjNmbKih-13" value="No" style="edgeStyle=orthogonalEdgeStyle;rounded=0;orthogonalLoop=1;jettySize=auto;html=1;" edge="1" parent="MVE86zR6ecj5sjNmbKih-1" source="MVE86zR6ecj5sjNmbKih-11" target="MVE86zR6ecj5sjNmbKih-12">
          <mxGeometry relative="1" as="geometry">
            <Array as="points">
              <mxPoint x="538" y="450" />
            </Array>
          </mxGeometry>
        </mxCell>
        <mxCell id="MVE86zR6ecj5sjNmbKih-14" value="Veeam Continuous Data Protection (CDP)" style="rounded=0;whiteSpace=wrap;html=1;fillColor=#dae8fc;strokeColor=#6c8ebf;" vertex="1" parent="MVE86zR6ecj5sjNmbKih-1">
          <mxGeometry x="230" y="523" width="132.5" height="40" as="geometry" />
        </mxCell>
      </root>
    </mxGraphModel>
  </diagram>
  <diagram name="Zerto" id="vzhwwD8AwHDnNuQvaVza">
    <mxGraphModel dx="794" dy="517" grid="1" gridSize="10" guides="1" tooltips="1" connect="1" arrows="1" fold="1" page="1" pageScale="1" pageWidth="827" pageHeight="1169" math="0" shadow="0">
      <root>
        <mxCell id="uOQ39EAIutqdIeEjohP7-0" />
        <mxCell id="uOQ39EAIutqdIeEjohP7-1" parent="uOQ39EAIutqdIeEjohP7-0" />
        <mxCell id="uOQ39EAIutqdIeEjohP7-2" style="edgeStyle=orthogonalEdgeStyle;rounded=0;orthogonalLoop=1;jettySize=auto;html=1;" edge="1" parent="uOQ39EAIutqdIeEjohP7-1" source="uOQ39EAIutqdIeEjohP7-3" target="uOQ39EAIutqdIeEjohP7-5">
          <mxGeometry relative="1" as="geometry" />
        </mxCell>
        <mxCell id="uOQ39EAIutqdIeEjohP7-3" value="&lt;div style=&quot;text-align: center;&quot;&gt;&lt;b style=&quot;background-color: initial;&quot;&gt;Need&lt;/b&gt;&lt;/div&gt;disaster recovery capability for VMware workloads across IBM Cloud regions" style="rounded=1;whiteSpace=wrap;html=1;align=left;fillColor=#dae8fc;strokeColor=#6c8ebf;" vertex="1" parent="uOQ39EAIutqdIeEjohP7-1">
          <mxGeometry x="267.5" y="60" width="135" height="90" as="geometry" />
        </mxCell>
        <mxCell id="uOQ39EAIutqdIeEjohP7-4" value="Yes" style="edgeStyle=orthogonalEdgeStyle;rounded=0;orthogonalLoop=1;jettySize=auto;html=1;" edge="1" parent="uOQ39EAIutqdIeEjohP7-1" source="uOQ39EAIutqdIeEjohP7-5" target="uOQ39EAIutqdIeEjohP7-7">
          <mxGeometry relative="1" as="geometry">
            <Array as="points">
              <mxPoint x="425" y="250" />
            </Array>
          </mxGeometry>
        </mxCell>
        <mxCell id="uOQ39EAIutqdIeEjohP7-5" value="&lt;span style=&quot;font-family: Helvetica; font-size: 12px; font-style: normal; font-variant-ligatures: normal; font-variant-caps: normal; font-weight: 400; letter-spacing: normal; orphans: 2; text-align: center; text-indent: 0px; text-transform: none; widows: 2; word-spacing: 0px; -webkit-text-stroke-width: 0px; text-decoration-thickness: initial; text-decoration-style: initial; text-decoration-color: initial; float: none; display: inline !important;&quot;&gt;vSphere &lt;br&gt;encryption &lt;br&gt;compatibility &lt;br&gt;needed&lt;/span&gt;" style="rhombus;whiteSpace=wrap;html=1;fillColor=#dae8fc;strokeColor=#6c8ebf;fontColor=default;labelBackgroundColor=none;" vertex="1" parent="uOQ39EAIutqdIeEjohP7-1">
          <mxGeometry x="270" y="190" width="130" height="120" as="geometry" />
        </mxCell>
        <mxCell id="uOQ39EAIutqdIeEjohP7-6" value="Zerto" style="rounded=0;whiteSpace=wrap;html=1;fillColor=#ffe6cc;strokeColor=#d79b00;" vertex="1" parent="uOQ39EAIutqdIeEjohP7-1">
          <mxGeometry x="220" y="330" width="60" height="20" as="geometry" />
        </mxCell>
        <mxCell id="uOQ39EAIutqdIeEjohP7-7" value="Veeam" style="rounded=0;whiteSpace=wrap;html=1;fillColor=#dae8fc;strokeColor=#6c8ebf;" vertex="1" parent="uOQ39EAIutqdIeEjohP7-1">
          <mxGeometry x="390" y="330" width="70" height="20" as="geometry" />
        </mxCell>
        <mxCell id="uOQ39EAIutqdIeEjohP7-8" value="No" style="edgeStyle=orthogonalEdgeStyle;rounded=0;orthogonalLoop=1;jettySize=auto;html=1;" edge="1" parent="uOQ39EAIutqdIeEjohP7-1" source="uOQ39EAIutqdIeEjohP7-5" target="uOQ39EAIutqdIeEjohP7-6">
          <mxGeometry relative="1" as="geometry">
            <Array as="points">
              <mxPoint x="250" y="250" />
            </Array>
            <mxPoint as="offset" />
          </mxGeometry>
        </mxCell>
      </root>
    </mxGraphModel>
  </diagram>
  <diagram id="vLJIc9MyE846H874pXE8" name="veeam_deployment">
    <mxGraphModel dx="2943" dy="2780" grid="1" gridSize="10" guides="1" tooltips="1" connect="1" arrows="1" fold="1" page="1" pageScale="1" pageWidth="827" pageHeight="1169" math="0" shadow="0">
      <root>
        <mxCell id="0" />
        <mxCell id="1" parent="0" />
        <mxCell id="3o47zuskQ4emcLuhvPM6-15" style="edgeStyle=orthogonalEdgeStyle;rounded=0;orthogonalLoop=1;jettySize=auto;html=1;" parent="1" source="3o47zuskQ4emcLuhvPM6-2" target="3o47zuskQ4emcLuhvPM6-10" edge="1">
          <mxGeometry relative="1" as="geometry">
            <Array as="points">
              <mxPoint x="348" y="-1020" />
              <mxPoint x="348" y="-1020" />
            </Array>
          </mxGeometry>
        </mxCell>
        <mxCell id="3o47zuskQ4emcLuhvPM6-2" value="&lt;b&gt;Veeam deployment options&lt;/b&gt;&lt;div style=&quot;&quot;&gt;&lt;/div&gt;" style="rounded=1;whiteSpace=wrap;html=1;align=center;fillColor=#dae8fc;strokeColor=#6c8ebf;" parent="1" vertex="1">
          <mxGeometry x="280" y="-1080" width="135" height="50" as="geometry" />
        </mxCell>
        <mxCell id="3o47zuskQ4emcLuhvPM6-3" value="Yes" style="edgeStyle=orthogonalEdgeStyle;rounded=0;orthogonalLoop=1;jettySize=auto;html=1;" parent="1" source="3o47zuskQ4emcLuhvPM6-10" target="3o47zuskQ4emcLuhvPM6-6" edge="1">
          <mxGeometry relative="1" as="geometry">
            <Array as="points">
              <mxPoint x="410" y="-920" />
              <mxPoint x="410" y="-920" />
            </Array>
          </mxGeometry>
        </mxCell>
        <mxCell id="3o47zuskQ4emcLuhvPM6-9" value="Yes" style="edgeStyle=orthogonalEdgeStyle;rounded=0;orthogonalLoop=1;jettySize=auto;html=1;" parent="1" source="3o47zuskQ4emcLuhvPM6-4" target="3o47zuskQ4emcLuhvPM6-8" edge="1">
          <mxGeometry relative="1" as="geometry">
            <Array as="points">
              <mxPoint x="238" y="-753" />
            </Array>
          </mxGeometry>
        </mxCell>
        <mxCell id="3o47zuskQ4emcLuhvPM6-4" value="Need for the &lt;br&gt;Veeam server to be highly available" style="rhombus;whiteSpace=wrap;html=1;fillColor=#dae8fc;strokeColor=#6c8ebf;fontColor=default;labelBackgroundColor=none;" parent="1" vertex="1">
          <mxGeometry x="282.5" y="-813" width="130" height="120" as="geometry" />
        </mxCell>
        <mxCell id="3o47zuskQ4emcLuhvPM6-5" value="Windows VSI &lt;br&gt;(hosted on IBM Cloud)" style="rounded=0;whiteSpace=wrap;html=1;fillColor=#dae8fc;strokeColor=#6c8ebf;" parent="1" vertex="1">
          <mxGeometry x="412.5" y="-700" width="127.5" height="40" as="geometry" />
        </mxCell>
        <mxCell id="3o47zuskQ4emcLuhvPM6-6" value="Bare Metal Server" style="rounded=0;whiteSpace=wrap;html=1;fillColor=#ffe6cc;strokeColor=#d79b00;" parent="1" vertex="1">
          <mxGeometry x="470" y="-930" width="100" height="20" as="geometry" />
        </mxCell>
        <mxCell id="3o47zuskQ4emcLuhvPM6-7" value="No" style="edgeStyle=orthogonalEdgeStyle;rounded=0;orthogonalLoop=1;jettySize=auto;html=1;" parent="1" source="3o47zuskQ4emcLuhvPM6-4" target="3o47zuskQ4emcLuhvPM6-5" edge="1">
          <mxGeometry relative="1" as="geometry">
            <Array as="points">
              <mxPoint x="458" y="-753" />
            </Array>
          </mxGeometry>
        </mxCell>
        <mxCell id="3o47zuskQ4emcLuhvPM6-8" value="Windows VM &lt;br&gt;(hosted on the VMware deployment)" style="rounded=0;whiteSpace=wrap;html=1;fillColor=#dae8fc;strokeColor=#6c8ebf;" parent="1" vertex="1">
          <mxGeometry x="150" y="-700" width="132.5" height="40" as="geometry" />
        </mxCell>
        <mxCell id="3o47zuskQ4emcLuhvPM6-14" value="No" style="edgeStyle=orthogonalEdgeStyle;rounded=0;orthogonalLoop=1;jettySize=auto;html=1;" parent="1" source="3o47zuskQ4emcLuhvPM6-10" target="3o47zuskQ4emcLuhvPM6-4" edge="1">
          <mxGeometry relative="1" as="geometry">
            <Array as="points">
              <mxPoint x="325" y="-920" />
            </Array>
          </mxGeometry>
        </mxCell>
        <mxCell id="3o47zuskQ4emcLuhvPM6-10" value="Need for&amp;nbsp;&lt;br&gt;physical isolation&lt;br&gt;&amp;nbsp;of the Veeam server and its&amp;nbsp;storage" style="rhombus;whiteSpace=wrap;html=1;fillColor=#dae8fc;strokeColor=#6c8ebf;fontColor=default;labelBackgroundColor=none;" parent="1" vertex="1">
          <mxGeometry x="282.5" y="-980" width="130" height="120" as="geometry" />
        </mxCell>
      </root>
    </mxGraphModel>
  </diagram>
  <diagram name="KMS" id="hro80h1Kh4wBRXjXCcC7">
    <mxGraphModel dx="1122" dy="793" grid="1" gridSize="10" guides="1" tooltips="1" connect="1" arrows="1" fold="1" page="1" pageScale="1" pageWidth="827" pageHeight="1169" math="0" shadow="0">
      <root>
        <mxCell id="XDGDI48KLB5o8Xd3qSgd-0" />
        <mxCell id="XDGDI48KLB5o8Xd3qSgd-1" parent="XDGDI48KLB5o8Xd3qSgd-0" />
        <mxCell id="XDGDI48KLB5o8Xd3qSgd-2" style="edgeStyle=orthogonalEdgeStyle;rounded=0;orthogonalLoop=1;jettySize=auto;html=1;" edge="1" parent="XDGDI48KLB5o8Xd3qSgd-1" source="XDGDI48KLB5o8Xd3qSgd-3" target="XDGDI48KLB5o8Xd3qSgd-5">
          <mxGeometry relative="1" as="geometry" />
        </mxCell>
        <mxCell id="XDGDI48KLB5o8Xd3qSgd-3" value="&lt;b&gt;KMS choice&lt;/b&gt;&lt;div style=&quot;&quot;&gt;&lt;/div&gt;" style="rounded=1;whiteSpace=wrap;html=1;align=center;fillColor=#dae8fc;strokeColor=#6c8ebf;" vertex="1" parent="XDGDI48KLB5o8Xd3qSgd-1">
          <mxGeometry x="267.5" y="120" width="135" height="30" as="geometry" />
        </mxCell>
        <mxCell id="XDGDI48KLB5o8Xd3qSgd-4" value="No" style="edgeStyle=orthogonalEdgeStyle;rounded=0;orthogonalLoop=1;jettySize=auto;html=1;" edge="1" parent="XDGDI48KLB5o8Xd3qSgd-1" source="XDGDI48KLB5o8Xd3qSgd-5" target="XDGDI48KLB5o8Xd3qSgd-11">
          <mxGeometry x="-0.0598" relative="1" as="geometry">
            <Array as="points">
              <mxPoint x="468" y="250" />
            </Array>
            <mxPoint x="425" y="330" as="targetPoint" />
            <mxPoint as="offset" />
          </mxGeometry>
        </mxCell>
        <mxCell id="XDGDI48KLB5o8Xd3qSgd-5" value="Veeam native encryption used with KMS?" style="rhombus;whiteSpace=wrap;html=1;fillColor=#dae8fc;strokeColor=#6c8ebf;fontColor=default;labelBackgroundColor=none;" vertex="1" parent="XDGDI48KLB5o8Xd3qSgd-1">
          <mxGeometry x="270" y="190" width="130" height="120" as="geometry" />
        </mxCell>
        <mxCell id="XDGDI48KLB5o8Xd3qSgd-6" value="IBM Security Guardium Key Lifecycle Manager (GKLM)" style="rounded=0;whiteSpace=wrap;html=1;fillColor=#dae8fc;strokeColor=#6c8ebf;" vertex="1" parent="XDGDI48KLB5o8Xd3qSgd-1">
          <mxGeometry x="150" y="330" width="130" height="50" as="geometry" />
        </mxCell>
        <mxCell id="XDGDI48KLB5o8Xd3qSgd-8" value="Yes" style="edgeStyle=orthogonalEdgeStyle;rounded=0;orthogonalLoop=1;jettySize=auto;html=1;" edge="1" parent="XDGDI48KLB5o8Xd3qSgd-1" source="XDGDI48KLB5o8Xd3qSgd-5" target="XDGDI48KLB5o8Xd3qSgd-6">
          <mxGeometry x="0.2857" relative="1" as="geometry">
            <Array as="points">
              <mxPoint x="210" y="250" />
            </Array>
            <mxPoint y="-1" as="offset" />
          </mxGeometry>
        </mxCell>
        <mxCell id="XDGDI48KLB5o8Xd3qSgd-10" value="Yes" style="edgeStyle=orthogonalEdgeStyle;rounded=0;orthogonalLoop=1;jettySize=auto;html=1;" edge="1" parent="XDGDI48KLB5o8Xd3qSgd-1" source="XDGDI48KLB5o8Xd3qSgd-11" target="XDGDI48KLB5o8Xd3qSgd-14">
          <mxGeometry x="0.3603" relative="1" as="geometry">
            <Array as="points">
              <mxPoint x="341" y="450" />
            </Array>
            <mxPoint as="offset" />
          </mxGeometry>
        </mxCell>
        <mxCell id="XDGDI48KLB5o8Xd3qSgd-11" value="Dedicated HSM needed?" style="rhombus;whiteSpace=wrap;html=1;fillColor=#dae8fc;strokeColor=#6c8ebf;fontColor=default;labelBackgroundColor=none;" vertex="1" parent="XDGDI48KLB5o8Xd3qSgd-1">
          <mxGeometry x="402.5" y="390" width="130" height="120" as="geometry" />
        </mxCell>
        <mxCell id="XDGDI48KLB5o8Xd3qSgd-12" value="IBM Cloud Key Protect" style="rounded=0;whiteSpace=wrap;html=1;fillColor=#dae8fc;strokeColor=#6c8ebf;" vertex="1" parent="XDGDI48KLB5o8Xd3qSgd-1">
          <mxGeometry x="532.5" y="523" width="127.5" height="47" as="geometry" />
        </mxCell>
        <mxCell id="XDGDI48KLB5o8Xd3qSgd-13" value="No" style="edgeStyle=orthogonalEdgeStyle;rounded=0;orthogonalLoop=1;jettySize=auto;html=1;" edge="1" parent="XDGDI48KLB5o8Xd3qSgd-1" source="XDGDI48KLB5o8Xd3qSgd-11" target="XDGDI48KLB5o8Xd3qSgd-12">
          <mxGeometry x="0.37" relative="1" as="geometry">
            <Array as="points">
              <mxPoint x="596" y="450" />
            </Array>
            <mxPoint y="1" as="offset" />
          </mxGeometry>
        </mxCell>
        <mxCell id="XDGDI48KLB5o8Xd3qSgd-14" value="IBM Cloud Hyper Protect Crypto Services (HPCS)" style="rounded=0;whiteSpace=wrap;html=1;fillColor=#dae8fc;strokeColor=#6c8ebf;" vertex="1" parent="XDGDI48KLB5o8Xd3qSgd-1">
          <mxGeometry x="280" y="523" width="122.5" height="47" as="geometry" />
        </mxCell>
      </root>
    </mxGraphModel>
  </diagram>
</mxfile>
